<?xml version="1.0" encoding="utf-8"?>
<!DOCTYPE svg PUBLIC "-//W3C//DTD SVG 1.1//EN" "http://www.w3.org/Graphics/SVG/1.1/DTD/svg11.dtd">
<svg version="1.1" id="Layer_1" xmlns="http://www.w3.org/2000/svg" xmlns:xlink="http://www.w3.org/1999/xlink" x="0px" y="0px"
	 width="437.8886719px" height="388.4941406px" viewBox="0 0 437.8886719 388.4941406"
	 enable-background="new 0 0 437.8886719 388.4941406" xml:space="preserve">
<g>
	<defs>
		<polyline id="SVGID_1_" points="0,0 0,388.4941406 437.8886719,388.4941406 437.8886719,0 		"/>
	</defs>
	<clipPath id="SVGID_2_">
		<use xlink:href="#SVGID_1_"  overflow="visible"/>
	</clipPath>

	<path clip-path="url(#SVGID_2_)" fill="#0067B1" d="M420.6650391,95.4755859
		c-5.390625-2.0390625-16.5263672-4.8603516-32.5019531-3.7792969c-8.8535156,0.5976562-27.8994141,5.7216797-27.8994141,5.7216797
		s12.6650391,11.5576172,26.5693359,20.0654297c15.890625,9.7207031,27.7294922,14.4667969,28.2832031,14.7480469
		c0.5625,0.28125,0.3222656,0.8964844-0.0087891,1.1162109c-0.3339844,0.2197266-8.5869141,2.0830078-20.9355469,5.7568359
		c-11.4228516,3.4101562-21.1464844,8.2529297-46.4736328,14.1240234
		c-34.5791016,8.0068359-73.5322266,4.1660156-73.59375,4.1132812c-0.0527344-0.0527344-0.2197266,1.3886719-0.4980469,2.6103516
		c-0.28125,1.2216797-0.7763672,2.5576172-0.7207031,2.6103516c0.0527344,0.0527344,6.4335938-0.1669922,17.5136719,0.2548828
		c14.7832031,0.5537109,18.2285156,2.9443359,19.0019531,6.9697266c0.9404297,4.8955078-3.6503906,8.0332031-3.6503906,8.0332031
		s16.3505859-0.2197266,19.9921875,11.4785156c3.1962891,10.2480469-9.8291016,22.5087891-16.2832031,27.1230469
		c-6.4306641,4.6054688-30.0556641,15.6181641-52.4707031,31.7988281
		c-14.5957031,10.5205078-35.2939453,29.1796875-35.5751953,29.6806641
		c-0.2783203,0.5009766-0.4423828,0.3339844-0.1083984,0.7207031c0.328125,0.3867188,8.2910156,5.2646484,13.1132812,9.703125
		c4.7314453,4.3505859,9.1699219,10.5292969,9.1699219,10.5292969s0.8173828-0.0791016,4.9511719-9.28125
		c2.1064453-4.6933594,2.8359375-10.0634766,3.3896484-10.7314453c1.1396484-1.3623047,6.1699219-1.8896484,6.5039062-2.2236328
		s2.5576172-5.0625,6.5039062-8.6220703s6.4951172-4.5087891,8.0507812-5.1240234
		c1.5615234-0.6064453,0.1435547-8.7275391,6.1201172-18.5976562c7.1191406-11.7597656,18.0292969-13.4648438,31.0605469-10.8105469
		c14.3203125,2.9179688,21.5214844,16.9189453,21.5214844,16.9189453s5.109375-0.703125,8.7070312,6.6533203
		c2.5605469,5.2382812,1.9453125,14.5195312-2.5546875,28.6435547c-2.9238281,9.1669922-11.2324219,28.828125-26.3847656,45.2988281
		C296.9121094,346.7988281,288.5625,349.8837891,288.5625,349.8837891s-2.8798828,9.4394531-11.0654297,19.6171875
		c-4.7373047,5.8886719-15.1083984,13.7548828-21.9550781,13.6933594
		c-8.7451172-0.0966797-11.1708984-6.8027344-12.8378906-7.8574219c-1.6699219-1.0546875-6.8056641-3.0498047-8.8974609-5.5019531
		c-3.0146484-3.5244141-5.5546875-9.3955078-5.5546875-9.3955078s-5.4287109,0.8964844-12.3046875,7.3740234
		c-12.1113281,11.3994141-8.4902344,15.1435547-9.8085938,15.1962891c-2.0361328,0.0878906-6.2753906-10.6875,3.4892578-25.2949219
		c4.8779297-7.2861328,10.6171875-9.0615234,10.6171875-9.28125c0-0.2285156-2.2148438-0.6064453-3.9462891-1.9599609
		c-1.8486328-1.4501953-2.4257812-2.8212891-2.390625-2.6367188l-1.3798828-0.6328125c0,0,2.7158203,5.5986328,1.7753906,6.0644531
		c-2.5253906,1.2392578-7.9921875-2.2236328-12.7880859-5.1328125c-6.3369141-3.8408203-7.9013672-6.1523438-8.4023438-6.0996094
		c-0.4951172,0.0615234-0.9228516,4.5615234-3.7089844,5.0625c-2.7773438,0.4921875-4.8076172-1.3886719-8.1416016-3.8320312
		c-3.3369141-2.4433594-6.5185547-7.6376953-6.5185547-7.6376953s-1.1162109,4.1308594-7.3388672,17.3583984
		c-6.2285156,13.2275391-10.9394531,16.2597656-15.5800781,16.0664062
		c-5.7949219-0.2548828-8.5634766-5.0097656-8.5634766-5.0097656s-19.9863281,9.703125-41.7392578,12.1201172
		c-26.7275391,2.9794922-42.6357422-4.1132812-43.5761719-4.1660156c-0.9492188-0.0527344-5.2470703,2.1972656-16.2128906,2.4609375
		c-10.1835938,0.2460938-23.1035156-3.2431641-28.9042969-10.6523438
		c-6.1054688-7.8046875-2.4726562-15.2402344-2.4726562-15.2402344s-0.9697266-2.0302734-1.6054688-6.3017578
		c-0.3984375-2.671875,1.2539062-10.0546875,8.8359375-13.6845703c7.3945312-3.5332031,15.0117188,2.109375,15.0117188,2.109375
		s0.9404297-1.2744141,2.109375-2.2148438c1.1689453-0.9492188,2.4433594-1.6699219,2.4433594-1.6699219
		s-0.0761719-1.0019531-0.1289062-1.7841797c-0.0556641-0.7734375,0.0234375-1.4414062,0.0234375-1.4414062
		s-2.4492188-0.2724609-5.4492188-0.5537109s-9.1699219-2.0039062-11.5576172-2.5048828
		c-2.390625-0.5009766-4.0048828-0.2197266-4.5087891-0.6064453c-0.5009766-0.3867188,1.9160156-2.0566406,5.0800781-3.1728516
		c3.1728516-1.1074219,13.3505859-4.9482422,19.8808594-6.5478516c8.3671875-2.0390625,10.0078125-1.2304688,10.0078125-1.2304688
		s0.3867188-1.8369141,0.890625-2.8916016c0.4980469-1.0546875,0.9960938-2.4521484,0.9404297-2.4521484
		c-0.0527344,0-2.2324219-2.0214844-3.0732422-4.7373047c-0.8554688-2.8037109-0.7441406-2.5048828-0.8730469-6.8203125
		c0,0-2.1679688,0.5537109-5.2294922,0.2197266c-3.0498047-0.3339844-7.2275391-3.6298828-6.8349609-8.3935547
		c0.5566406-6.6533203,6.3398438-10.3886719,6.4482422-10.6699219s-2.2119141-0.9667969-7.2802734-3.5595703
		c-5.5957031-2.8476562-7.0546875-4.9833984-6.8349609-6.0292969c0.2285156-1.0634766,2.2763672-0.9755859,4.0576172-0.9755859
		c1.7783203,0,3.3339844,0.28125,3.5009766,0c0.1669922-0.2724609-6.2578125-3.0498047-9.1435547-4.7724609
		c-2.8974609-1.7226562-12.0234375-6.5478516-12.5390625-9.0615234c-0.4306641-2.1181641,9.8964844-0.7294922,9.7294922-1.0634766
		s-1.7021484,0.3955078-10.1162109-5.0537109c-3.890625-2.5224609-9.3515625-8.1650391-8.8359375-9.3955078
		c0.4248047-1.0458984,4.4326172-0.8876953,8.1445312,0.3515625c3.1523438,1.0458984,7.640625,1.9248047,7.640625,1.9248047
		s-2.7773438-2.4521484-1.9482422-4.4472656c1.3007812-3.1201172,13.3154297,1.8984375,14.0097656,1.0019531
		c0.3134766-0.4130859-2.5576172-2.7246094-6.9521484-7.2246094c-4.3886719-4.5-4.7753906-6.8027344-4.3505859-7.875
		c0.5273438-1.3271484,2.0742188-0.9140625,3.6826172-1.0195312c1.6171875-0.1142578,3.8378906-0.2285156,3.7265625-0.5009766
		c-0.1113281-0.28125-5.3349609-9.7294922-6.9521484-12.3925781c-1.6083984-2.671875-9.8261719-17.8154297-4.1132812-20.9003906
		c5.6982422-3.0761719,16.3623047,10.0283203,16.8046875,10.0810547c0.4482422,0.0527344-0.7734375-3.1025391,1.5996094-4.078125
		c2.2060547-0.9052734,5.4931641,3.09375,6.5039062,2.2851562c0.2548828-0.2021484-2.3349609-4.3066406-4.0048828-8.7275391
		c-1.6025391-4.2539062-4.5996094-9.5800781-0.7441406-13.4736328c4.3535156-4.3857422,13.8164062,12.1376953,13.8164062,12.1376953
		s-3.9785156-14.9414062-5.5078125-25.5673828c-1.4414062-9.9755859-2.5371094-19.2480469,3.5507812-21.7880859
		c4.0166016-1.6787109,8.2324219,5.0009766,12.0146484,10.3886719c3.7792969,5.3964844,7.8837891,17.015625,8.1650391,17.1210938
		c0.28125,0.1142578,0.1582031-8.2617188,3.5595703-8.4990234c1.8896484-0.140625,3.6650391,5.1679688,5.4462891,10.9951172
		c2.1123047,6.9169922,4.3886719,11.0126953,4.6171875,11.0126953c0.2197266,0,0.3867188-8.7802734,0.0527344-17.2353516
		c-0.3339844-8.4462891-0.1230469-16.9277344,4.6054688-17.2617188c4.7197266-0.3339844,9.8173828,11.3730469,11.8388672,16.7958984
		c2.0478516,5.4931641,6.0996094,18.7382812,7.1806641,18.8701172c0.5625,0.0703125-0.1757812-6.3369141,5.1591797-6.4160156
		c5.6953125-0.0791016,10.6259766,21.7529297,10.6259766,21.7529297s9.3867188-5.1328125,15.8378906-6.4511719
		c7.0839844-1.4589844,15.0117188-1.1601562,15.0117188-1.1601562s-1.8339844-0.9492188-9.5625-1.9511719
		c-7.7255859-0.9931641-11.015625-0.4306641-12.7792969-4.5263672c-1.6523438-3.8232422,2.9121094-6.6884766,6.1699219-7.5673828
		c2.4873047-0.6767578,9.1669922-1.1865234,9.7822266-1.6259766c0.6123047-0.4482422,0.9140625-3.1552734,1.4033203-4.4121094
		c0.515625-1.3271484,1.59375-3.3134766,1.59375-3.3134766s-4.0166016,2.1884766-8.9414062,2.8828125
		c-5.6748047,0.7998047-8.9707031-0.1933594-9.140625-0.5800781c-0.2871094-0.6503906,2.9941406-5.1064453,4.1074219-7.3388672
		c1.1132812-2.2236328,2.3554688-6.9697266,2.3554688-6.9697266s-3.09375,0.7998047-5.0449219,1.1337891
		c-1.9423828,0.3339844-5.3847656,0.6855469-6.1230469,0.140625c-0.6445312-0.4746094,4.1894531-8.2001953,5.9560547-13.6845703
		c2.4990234-7.7695312,2.9794922-13.921875,2.9794922-13.921875s-1.7402344,0.6503906-2.6279297,0.9316406
		s-3.8056641,2.109375-4.359375,1.6083984s3.7177734-13.7285156,4.5527344-18.2285156
		c0.8349609-4.5087891,3.6650391-10.1074219,3.6650391-10.1074219s-5.1855469,1.2744141-12.2109375-1.3359375
		c-4.3300781-1.6083984-8.7070312-9.3251953-7.3798828-9.2373047c6.7236328,0.4482422,11.6689453-2.2060547,19.4414062-9.5625
		c5.2382812-4.9394531,16.1806641-21.9550781,19.0927734-24.609375c4.6728516-4.2451172,10.0605469-3.9638672,10.6113281-4.2802734
		c1.6757812-0.9667969,4.5058594-15.9257812,28.2246094-24.5566406c18.6591797-6.7851562,34.9277344-1.5205078,40.0957031,0.3427734
		c1.0810547,0.3867188,1.7490234,0.1230469,1.7490234,0.1230469s7.5322266-12.3662109,21.2314453-13.0341797
		c12.8173828-0.6152344,27.1347656,9.9052734,27.1347656,9.9052734s4.1572266-5.8359375,18.2021484-1.9335938
		c7.4179688,2.0478516,18.3867188,12.5419922,18.3867188,12.5419922
		c27.6679688-9.3691406,66.9023438-4.2802734,91.8193359,22.4560547
		c25.4765625,27.3427734,16.2070312,53.3671875,16.2070312,53.3671875S427.0400391,97.875,420.6650391,95.4755859
		 M106.3125,295.6992188c-0.4482422,3.0498047,0.5361328,5.5546875,0.2724609,6.8994141
		c-0.2724609,1.3447266-1.6171875,5.8271484-1.6171875,5.8271484s0.8964844-0.2724609,2.3320312-0.4394531
		c1.4912109-0.1669922,1.8808594-0.3779297,1.9746094-0.7294922c0.0820312-0.3603516-0.4277344-3.0498047-0.4277344-4.2978516
		c0-1.2568359,0.5976562-4.1220703,0.8671875-7.4355469c0.2724609-3.3222656-0.984375-4.3066406-0.984375-4.3066406
		S106.6728516,293.2822266,106.3125,295.6992188z M73.7929688,302.4228516
		c-1.4326172,1.1601562-2.5048828,2.2324219-2.5048828,2.6806641c0,0.4570312-0.09375,2.1533203-0.3603516,2.9619141
		c-0.2724609,0.7998047,0.2666016,3.0410156,0.6240234,3.1376953c0.3603516,0.0878906,1.8867188-0.6328125,3.5859375-1.2568359
		c1.7050781-0.6240234,3.7617188-1.7050781,3.7617188-1.7050781s-0.7207031-1.7929688-0.984375-2.953125
		c-0.2724609-1.1689453-0.7148438-3.5859375-0.8027344-4.2099609c-0.09375-0.6328125-0.8144531-1.1689453-0.8144531-1.1689453
		S75.2255859,301.2539062,73.7929688,302.4228516z"/>
</g>
<path fill="#E31937" d="M360,114.8203125c-0.3193359-0.2109375-5.3701172-1.9423828-9.7822266-4.1748047
	c-3.5859375-1.8193359-10.5205078-5.8710938-10.5205078-5.8710938s-1.1748047-0.7470703-2.5488281-0.28125
	c-4.7958984,1.6435547-14.1240234,4.9042969-19.2832031,6.7851562c-5.2734375,1.9248047-18.7353516,7.9277344-21.4101562,8.8945312
	c-2.671875,0.9580078-3.5947266,1.6259766-4.4560547,1.6611328c-2.2851562,0.0791016-4.2275391,0.6943359-3.0673828,1.40625
	c0.2021484,0.1230469,14.7041016,0.2109375,24.3984375,0.0175781c11.6689453-0.2373047,27.5537109-0.3076172,28.8369141-0.4130859
	c1.59375-0.140625,4.1132812-1.2128906,9.5185547-3.9638672c5.5546875-2.8212891,6.7294922-2.9970703,7.6992188-3.2958984
	C360.8613281,115.1191406,360,114.8203125,360,114.8203125"/>
<path fill="#E31937" d="M317.9150391,27.8173828c0,0-3.0908203-5.1503906-11.2617188-8.9296875
	c-5.625-2.6103516-9.9375-3.1552734-12.3339844-2.8828125c-1.8632812,0.2197266-4.0957031,1.125-4.1923828,2.3994141
	c-0.0527344,0.7470703,1.1279297,1.4765625,2.8652344,2.3554688c2.1005859,1.0546875,3.5185547,1.3183594,3.796875,1.8632812
	c0.2724609,0.5449219,0.7734375,1.8105469,0.3193359,1.8632812c-2.3027344,0.28125-4.875-0.6855469-6.1289062-1.3798828
	c-3.2255859-1.7929688-10.7402344-7.1015625-16.1103516-10.1425781c-5.4667969-3.1113281-10.9248047-4.6582031-18.7207031-3.2607422
	c-9.5244141,1.6962891-15.1669922,11.2851562-15.1669922,11.2851562s6.0791016,3.7792969,9.8583984,5.8007812
	c3.5185547,1.8896484,5.0244141,2.4960938,7.7695312,2.7685547c2.7421875,0.2724609,5.4140625,0.2636719,5.625,1.0810547
	c0.1757812,0.6943359-1.2568359,2.3994141-3.3222656,2.4169922c-5.3261719,0.0439453-3.9521484,0.5449219-21.7294922-8.6572266
	c-15.7822266-8.1650391-28.9160156-5.7568359-29.1855469-5.7128906
	c-1.7578125,0.2724609-18.7470703,1.9951172-29.7949219,12.4980469c-5.953125,5.6513672-8.1474609,12.0234375-7.9804688,13.1220703
	c0.2988281,2.0039062,1.2890625,2.4609375,1.9423828,4.2451172c0.5800781,1.5732422,0.5537109,4.5439453-0.3427734,4.3945312
	c-1.1162109-0.1845703-2.9179688-5.9765625-7.5234375-6.0644531c-2.4873047-0.0439453-5.9941406-0.1582031-12.8613281,10.7314453
	c-4.4941406,7.1279297-10.5117188,14.203125-12.9169922,16.6728516c-2.4052734,2.4785156-9.0878906,7.9804688-11.2119141,8.7714844
	c-4.0546875,1.5205078-4.8632812,0.5625-5.1357422,1.0371094c-0.2724609,0.4833984,1.9863281,3.8320312,8.015625,4.2890625
	c7.8574219,0.5976562,14.1503906-4.359375,14.4990234-4.1748047c0.1347656,0.0703125-5.296875,9.2109375-6.7734375,13.2275391
	c-1.640625,4.4472656-2.2148438,7.3740234-3.09375,10.0195312c-0.8173828,2.4785156-1.2919922,5.0800781-1.8193359,5.9501953
	c-0.2636719,0.4394531,6.6416016-1.5292969,11.2675781-4.9746094c5.4140625-4.0341797,7.8837891-7.6025391,7.8837891-7.6025391
	s-0.3691406,5.8095703-4.9746094,9.3515625c-4.3417969,3.3486328-7.4179688,4.4296875-8.5341797,6.0380859
	c-0.2021484,0.2900391-0.28125,6.3808594-1.8984375,11.6279297c-2.8681641,9.3164062-5.6806641,13.5527344-5.6806641,13.5527344
	s4.6523438-0.0527344,11.1738281-4.2890625c6.3369141-4.1220703,9.0410156-7.0224609,9.0410156-7.0224609
	s0.5273438,3.5507812-3.9667969,7.4882812c-3.7558594,3.2958984-5.4697266,3.8671875-5.8564453,4.3769531
	c-0.2021484,0.2724609-1.0722656,4.6757812-1.8984375,7.03125c-1.2099609,3.4804688-3.3398438,6.2402344-3.0322266,6.6796875
	c0.3457031,0.4833984,6.4072266-0.7382812,13.3330078-5.5107422c4.6318359-3.1904297,9.8115234-6.5214844,9.8115234-6.5214844
	s-3.4042969,4.6230469-5.8564453,9.9316406c-3.0234375,6.5478516-4.5439453,10.1601562-4.1660156,14.4404297
	c0.0263672,0.2460938,4.2568359-2.1269531,8.0859375-3.4453125c2.953125-1.0195312,6.4716797-1.9599609,10.4501953-6.4423828
	c2.8828125-3.234375,6.1787109-7.1367188,6.1787109-7.1367188s-1.7548828,4.3945312-2.4404297,8.5078125
	c-0.6796875,4.1220703-0.7792969,10.2128906-0.2753906,10.7666016c0.2636719,0.28125,10.0195312-5.6601562,13.0253906-9.1054688
	c4.7285156-5.4140625,8.7802734-12.9550781,8.7802734-12.9550781s0.2724609,0.421875,0.3486328,0.9052734
	c0.0644531,0.4833984-0.8583984,9.9755859-0.5566406,13.4560547c0.3632812,4.1923828,0.5771484,5.2998047,0.8759766,10.7138672
	c0.0791016,1.4414062-0.0908203,2.4873047,0.2490234,2.6894531c0.3486328,0.2109375,0.8408203-0.5273438,2.2119141-1.1513672
	c1.3740234-0.6152344,10.4150391-3.9726562,15.4423828-8.4550781c8.8242188-7.8574219,10.734375-12.7617188,10.734375-12.7617188
	s-1.8867188,9.9316406-2.0244141,13.4560547c-0.2285156,5.8359375,0.4892578,15.2753906,1.1777344,15.7587891
	c0.6855469,0.4833984,3.6826172-2.3730469,7.4619141-4.5351562c1.8544922-1.0634766,5.4316406-2.9443359,11.3818359-10.9951172
	c3.7441406-5.0537109,6.4833984-8.6220703,6.9228516-8.7451172c0.4511719-0.1230469-2.4316406,7.6113281-2.4550781,10.1513672
	c-0.0205078,2.8388672,1.3505859,7.3564453,2.0742188,9.3339844c0.5771484,1.5644531,0.7177734,2.4169922,1.1748047,4.6054688
	c0,0,6.6181641-6.4248047,10.6699219-10.7050781c9.1494141-9.6591797,8.5751953-15.1259766,8.5751953-15.1259766
	c-13.59375-1.4941406-26.4785156-5.9238281-34.4707031-8.8242188
	c-20.9941406-7.6025391-32.6601562-17.2265625-44.8212891-28.6347656
	c-7.0488281-6.6181641-9.3837891-13.3417969-7.8837891-16.8134766c0.8789062-2.0390625,2.9267578-2.8652344,2.9267578-2.8652344
	s-10.2041016-11.9619141-8.6572266-22.7197266c0.9052734-6.3193359,9.9316406-8.7802734,26.7070312-5.5546875
	c21.4658203,4.1308594,43.2451172,16.2949219,43.2451172,16.2949219s-8.2705078-5.7480469-11.4990234-10.2744141
	c-3.2285156-4.5351562-4.875-8.1035156-4.875-8.1035156s-5.5986328,0.9052734-11.4667969-0.6240234
	c-5.8769531-1.5292969-11.4287109-2.671875-15.6152344-10.0283203c-1.2773438-2.2324219,0.375-1.4150391,2.1650391,0.8964844
	c0.1318359,0.1669922,1.4443359,1.3447266,3.3046875,1.4414062c2.3291016,0.1318359,9.4130859-0.984375,19.9511719-10.2128906
	c10.96875-9.6064453,20.3349609-16.8310547,26.8505859-14.2910156c6.5302734,2.5400391,8.859375,8.6484375,5.0185547,13.6582031
	c-3.8466797,5.0097656-4.7431641,7.0751953-4.7431641,7.0751953s1.4472656,0.8876953,3.5683594,3.0849609
	c2.1328125,2.1972656,4.4648438,4.3330078,4.4648438,4.3330078s7.4853516-9.4130859,26.1533203-21.4277344
	C308.7158203,31.1923828,317.9150391,27.8173828,317.9150391,27.8173828"/>
<path fill="#E31937" d="M287.9121094,288.9228516c-0.3427734,0.4833984-3.5654297,6.5654297-5.5722656,10.546875
	c-3.4189453,6.7939453-3.9023438,12.7089844-5.0273438,13.0517578c-0.5068359,0.1494141-6.0615234-3.1289062-14.2207031-4.8427734
	c-6.3632812-1.3271484-14.9501953-1.6083984-15.2402344-1.6611328c-0.2958984-0.0439453-0.4423828-0.3867188-0.6357422-0.7294922
	s-0.5390625-0.9316406-0.6386719-1.0810547c-0.0966797-0.140625-0.1933594-0.4306641-0.2373047-0.7734375
	c-0.0527344-0.3515625,0.0439453-1.2216797,0.140625-1.6611328s4.0341797-8.7011719,4.8662109-11.1884766
	c0.8291016-2.4960938,3.0263672-8.5517578,3.7119141-8.9472656c0.6855469-0.3867188,7.1542969-2.5839844,17.8564453-0.4306641
	c7.6845703,1.5380859,14.5576172,5.6162109,15.3398438,6.9785156
	C288.2548828,288.1845703,288.2548828,288.4306641,287.9121094,288.9228516 M278.4873047,290.53125
	c-0.3925781-0.3955078-6.8847656-3.234375-10.9482422-3.9550781c-3.8583984-0.6855469-10.5996094-0.0527344-10.9423828,0.1494141
	c-0.3427734,0.1933594-1.9599609,4.7373047-2.5927734,6.5917969s-2.5488281,6.3457031-2.390625,6.5917969
	c0.4394531,0.6855469,4.0048828-0.9228516,10.6494141,0.8349609c5.7304688,1.5117188,10.1103516,3.7177734,10.4091797,3.7617188
	c0.2900391,0.0439453,1.3681641-3.6650391,2.7333984-6.890625c1.0839844-2.5664062,2.6894531-6.1523438,2.8828125-6.4423828
	C278.4873047,290.8740234,278.4873047,290.53125,278.4873047,290.53125z"/>
<path fill="#E31937" d="M108.9931641,325.0107422c-0.5390625,0.4394531-7.5673828,1.2216797-14.7128906,3.5244141
	c-5.1943359,1.6787109-11.4433594,5.1064453-11.7304688,4.9658203c-0.2841797-0.140625-2.5341797-3.9990234-6.5771484-8.4638672
	c-4.0400391-4.4648438-4.3769531-3.5771484-4.8662109-6.3105469c-0.1113281-0.6503906,1.8808594-2.4697266,5.1826172-4.5
	c3.3017578-2.0214844,4.9775391-2.6982422,4.9775391-2.6982422s0.7910156,0.4921875,2.4492188,0.6855469
	c0.9667969,0.1054688,4.1542969-0.8525391,5.2119141-1.8808594c1.3916016-1.3710938,2.0771484-2.9355469,2.7333984-2.7685547
	c0.3603516,0.1054688,0.3164062,0.6767578,0.3457031,1.2216797c0.0322266,0.5361328,2.2119141,2.9970703,3.75,3.9111328
	c0.6591797,0.3867188,1.5058594,0.0527344,2.8740234,0.5009766c0.4394531,0.1494141,2.4082031,1.5556641,4.3564453,3.5068359
	C105.9433594,319.6669922,109.2158203,324.8349609,108.9931641,325.0107422 M94.1044922,316.1953125
	c-1.5029297-1.6171875-3.6445312-3.8144531-3.984375-3.8671875c-0.3398438-0.0615234-4.0136719,1.0458984-5.6074219,1.7314453
	s-6.0087891,2.7597656-6.1494141,2.9882812s2.3642578,2.9267578,3.9550781,4.8691406
	c1.4941406,1.8017578,3.8466797,4.3242188,4.1044922,4.3857422c0.2548828,0.0527344,4.2978516-1.7402344,5.9472656-2.2763672
	c1.6523438-0.5449219,5.7509766-2.1357422,5.8652344-2.1708984
	C98.3466797,321.8291016,95.5898438,317.7861328,94.1044922,316.1953125z"/>
<path fill="#FFD200" d="M258.8408203,42.8466797c-1.0136719-2.7158203-4.2392578-3.2255859-5.6015625-3.3925781
	c-1.359375-0.1669922-6.7060547,0.6767578-17.2382812,9.5976562c-10.5351562,8.9208984-13.7607422,11.4697266-16.6523438,12.65625
	c-2.8828125,1.1865234-5.9414062,1.7841797-5.5986328,2.1181641c0.3339844,0.3427734,5.3466797,1.6787109,7.7255859,1.9599609
	c5.1855469,0.5888672,8.1445312-0.3339844,8.1445312-0.3339844s-0.2431641-7.9101562,3.7470703-11.3027344
	c6.9082031-5.8798828,19.1953125,0.7646484,19.1953125,0.7646484s4.5087891-5.0800781,5.6074219-7.4794922
	C259.5234375,44.4638672,258.8408203,42.8466797,258.8408203,42.8466797"/>
<path fill="#FFD200" d="M354.8466797,98.8857422c0,0-2.7919922,0.8173828-4.8837891,1.3974609
	c-2.0947266,0.5800781-6.2841797,1.5117188-6.1699219,1.7402344c0.1142578,0.2373047,8.8417969,6.1699219,11.8652344,7.3300781
	c3.0322266,1.1689453,8.3818359,3.375,10.2451172,3.8408203c1.8574219,0.4658203,4.4150391,0.8173828,4.4150391,1.2832031
	s-3.4892578,1.8544922-8.1416016,3.8408203c-4.6552734,1.96875-9.3046875,4.5351562-9.3046875,4.8867188
	c0,0.3427734,15.0029297,1.7402344,22.21875,2.5576172c7.2158203,0.8085938,16.4091797,1.9775391,18.7324219,2.3291016
	c2.3261719,0.3427734,4.7695312,1.0458984,4.6552734,0.6943359c-0.1201172-0.3515625-0.9316406-0.6943359-3.375-1.7490234
	c-2.4433594-1.0458984-11.7509766-6.75-16.8720703-10.3535156C373.1132812,113.0800781,364.5,106.2158203,361.125,103.7724609
	C357.7587891,101.3291016,354.8466797,98.8857422,354.8466797,98.8857422"/>
<path fill="#FFD200" d="M267.3076172,103.4033203c-0.5947266-1.1074219-6.0439453-6.9785156-15.8525391-13.2275391
	c0,0,11.2939453,4.4824219,17.0507812-2.3466797c7.1103516-8.4462891-2.5693359-17.6484375-1.7666016-19.0722656
	c4.6669922-8.2353516,28.6816406-29.0830078,58.9833984-39.1025391
	c32.4873047-10.7490234,60.2607422-0.0527344,79.5439453,15.8291016
	c28.7548828,23.6865234,22.5058594,49.6054688,22.5058594,49.6054688s-15.8847656-12.0585938-49.5615234-5.6953125
	c-32.90625,6.2226562-34.7783203,9.5273438-61.6142578,18.3691406
	c-18.1933594,5.9853516-29.7304688,15.9521484-50.7949219,15.3544922
	c-38.8417969-1.0986328-48.234375-14.8710938-48.234375-14.8710938s0.5917969-4.921875-6.8789062-12.3925781
	c-1.8251953-1.828125-6.2900391-6.6269531-9.9433594-4.5878906c-3.7851562,2.1181641,7.0488281,15.3105469,16.6464844,22.9306641
	c6.2021484,4.9306641,15.6943359,8.7451172,24.2050781,10.2744141c27.3515625,4.9306641,43.0634766,2.2148438,70.4150391,2.8037109
	c19.3681641,0.421875,32.6953125-0.6767578,57.4189453,1.5380859c14.5019531,1.3007812,28.1865234,3.9814453,28.1865234,4.3242188
	s-6.7148438,2.2763672-14.5986328,4.921875c-11.6425781,3.9111328-34.2949219,12.6914062-56.6103516,14.7832031
	c-42.5126953,3.9902344-66.0556641,1.1865234-95.5986328-10.7050781
	c-27.4306641-11.0390625-46.453125-33.3720703-44.15625-36.9140625c0.7470703-1.1425781,2.6279297-0.4570312,2.6279297-0.4570312
	s5.7744141,4.5087891,8.6630859,6.8027344c2.8857422,2.2851562,10.7167969,6.7675781,12.6591797,7.2158203
	c2.2060547,0.5097656,3.9462891-0.140625,3.9111328-0.6767578c-0.0966797-1.2744141-0.3105469-1.0107422-5.6953125-3.9111328
	c-7.5644531-4.078125-16.3710938-11.5576172-19.8896484-15.8027344
	c-2.3818359-2.8916016-13.1044922-18.4570312-6.0996094-22.6669922
	c12.3310547-7.4267578,55.4941406,12.0410156,58.8867188,13.6669922
	c8.9296875,4.2626953,17.2089844,9.5888672,26.2763672,15.8730469
	C267.9931641,105.2666016,267.7236328,104.1855469,267.3076172,103.4033203 M310.4150391,43.3125
	c-7.2890625,4.0166016-5.4375,8.7802734-4.6259766,9.4570312c0.8085938,0.6767578,4.2363281,4.2099609,11.6542969-0.4570312
	c7.4179688-4.6582031,5.2998047-7.8837891,4.5351562-9.0615234C320.9091797,41.5986328,317.4433594,39.4365234,310.4150391,43.3125z
	"/>
<path fill="#FFD200" d="M312.2929688,46.0283203c-2.2324219,1.6523438-4.5966797,3.4365234-3.2695312,4.8955078
	c1.3330078,1.4589844,4.7285156-0.0351562,6.1875-0.7470703s4.3798828-3.0761719,3.4013672-4.5703125
	C317.7333984,44.2792969,314.5283203,44.3847656,312.2929688,46.0283203"/>
<path fill="#FFD200" d="M332.0683594,273.7441406c-4.7724609,18.2900391-15.7001953,24.890625-16.7695312,26.5869141
	c-0.8349609,1.3183594-6.5214844,16.0839844-12.2519531,23.2382812
	c-5.6689453,7.0664062-10.8662109,11.5136719-20.1708984,17.0244141c-1.6435547,0.984375-0.1875,2.2587891-0.2519531,3.0849609
	c-0.0556641,0.8085938-2.1650391,11.3730469-11.4433594,19.9599609
	c-14.1884766,13.1396484-21.2900391,12.3222656-22.2919922,13.3242188c-0.4394531,0.4482422,2.953125,2.8916016,6.3457031,2.5751953
	c3.2958984-0.3076172,13.7636719-5.2646484,22.3681641-17.4023438c6.8466797-9.6679688,8.1210938-17.0595703,8.2324219-17.5869141
	c0.2460938-1.1953125,0.6269531-1.5644531,1.7519531-0.8261719c0.4570312,0.2988281,0.984375,1.8984375,1.5117188,1.6962891
	c4.7109375-1.7402344,17.7363281-12.8320312,29.4960938-29.9003906
	c8.578125-12.4277344,16.3916016-32.4931641,18.1845703-40.7021484c2.5166016-11.4960938,0.0673828-18.8964844-2.6367188-19.7226562
	C331.1806641,254.1972656,335.5166016,260.5429688,332.0683594,273.7441406"/>
<path fill="#FFD200" d="M225.7822266,351.8876953c-1.1601562-0.4306641-5.7949219-0.9052734-11.7597656,5.9677734
	c-5.9707031,6.8818359-8.1210938,15.6884766-7.6816406,16.2685547c0.4394531,0.5888672,1.0957031-4.4384766,9.9755859-11.1708984
	c8.8857422-6.7324219,10.7050781-5.2822266,11.7597656-7.171875
	C228.5859375,354.8583984,227.5283203,352.546875,225.7822266,351.8876953"/>
<path fill="#FFD200" d="M61.6552734,295.7871094c-0.2109375,0.0527344-1.125,2.3115234-2.25,3.0058594
	c-1.1337891,0.703125-1.2392578,0.1582031-2.3144531,1.2919922c-1.078125,1.1337891-4.5175781,6.1875-0.2695312,9.84375
	c2.3115234,1.9863281,6.7236328,1.3974609,8.4375,0.8085938s3.0849609-2.8740234,2.3671875-4.3066406
	c-0.6386719-1.2919922-2.0419922-0.7558594-3.0087891-2.0917969c-0.9667969-1.3447266-1.1806641-2.9619141-1.828125-4.359375
	s-1.0810547-1.7841797-0.9697266-2.4169922C62.0332031,296.3232422,61.6552734,295.7871094,61.6552734,295.7871094"/>
<path fill="#FFD200" d="M47.6191406,308.5839844c-1.7724609,0.1669922-4.7285156,0.3779297-10.2128906,1.9335938
	s-13.3388672,3.7705078-13.3388672,4.4121094c0,0.5273438,11.3349609,1.5292969,15.1669922,1.4501953
	c5.1064453-0.1054688,11.0214844-2.4697266,11.8300781-4.6230469
	C51.8701172,309.6035156,49.3974609,308.4257812,47.6191406,308.5839844"/>
<path fill="#FFD200" d="M71.7714844,325.5732422c0,0-1.3447266-1.5029297-1.6171875-1.5029297
	c-0.2666016,0-2.0390625,4.7900391-3.9726562,6.6181641c-1.9423828,1.828125-4.5175781,4.6230469-5.5400391,3.1201172
	c-1.0253906-1.5117188,3.703125-4.1396484,5.2148438-7.4794922c1.5058594-3.3310547,2.5751953-5.5371094,2.6835938-9.1933594
	c0.1113281-3.65625,0.2167969-3.4453125-0.1611328-3.4980469c-0.3720703-0.0527344-3.2783203,1.3447266-7.2597656,1.2832031
	c-5.3818359-0.0703125-5.484375-1.6083984-5.9677734-1.7138672s-1.0253906,2.6279297-6.0205078,4.5703125
	c-3.9199219,1.5117188-6.9345703,1.2919922-7.5849609,2.0478516c-0.6416016,0.7558594-0.6503906,4.6757812,0.6972656,8.5957031
	c0.9316406,2.7246094,3.9316406,7.4267578,2.1591797,8.015625c-1.8632812,0.6328125-2.3730469-0.8085938-4.2539062-5.3701172
	c-1.2685547-3.0849609-1.3447266-3.9287109-1.5556641-4.1484375c-0.2197266-0.2109375-0.9726562-0.3164062-1.3476562-0.1054688
	c-0.3808594,0.2197266-2.3701172,2.5839844-2.6367188,3.0146484c-0.2695312,0.4306641,1.3417969,2.5224609,1.9892578,3.5507812
	c0.6474609,1.0195312,2.1005859,3.6474609,1.4501953,4.7285156c-0.6416016,1.0810547-1.0722656,1.1777344-1.4501953,0.703125
	c-0.3779297-0.4833984-2.4287109-6.6357422-8.5517578-10.1162109c-6.9873047-3.9814453-15.0410156,0.6328125-15.8085938,7.3125
	c-0.8847656,7.6904297,6.8203125,15.9433594,20.8652344,20.5048828c15.3808594,4.9921875,24.4658203-1.1953125,24.4658203-1.1953125
	s14.3085938,7.7958984,41.5224609,5.0009766c27.8496094-2.8652344,37.3769531-9.7910156,40.4443359-12.1025391
	c2.9619141-2.2324219,3.3310547-3.6035156,2.953125-3.4980469c-0.3691406,0.1142578-4.4648438,2.4257812-7.6318359-0.5888672
	c-5.7011719-5.4052734-2.4228516-17.1474609-2.9589844-17.5869141c-0.5390625-0.4306641-2.0039062,0.4306641-3.65625,0.1142578
	c-2.8037109-0.5449219-3.7617188-3.234375-4.3066406-3.1728516c-0.9667969,0.1054688-1.828125,4.78125-6.1259766,4.3505859
	c-3.4980469-0.3515625-5.1152344-3.65625-4.9306641-9.4130859c0.1582031-4.8603516,0.6767578-6.7236328,0.6767578-6.7236328
	s-2.2060547,0-4.4648438,0.2724609c-2.2587891,0.2636719-5.0537109,0.8085938-5.0537109,0.8085938
	s3.4453125,3.4980469,5.5957031,6.4511719c2.1474609,2.9619141,4.9423828,7.4091797,4.6787109,8.2880859
	c-0.1582031,0.5273438-3.0673828-0.6503906-16.9423828,3.5068359c-10.9189453,3.2695312-16.2949219,7.03125-16.6699219,7.1367188
	c-0.3808594,0.1054688-0.7001953-2.2587891-2.2089844-4.5175781c-1.5-2.2587891-3.0087891-4.4121094-3.2226562-4.4121094
	c-0.2167969,0-0.4892578,5.3085938-2.2382812,8.7714844c-1.8515625,3.65625-3.8320312,6.328125-4.9130859,5.484375
	c-1.5087891-1.1865234,1.5556641-5.484375,2.953125-9.3603516
	C72.0615234,331.3916016,71.7714844,325.5732422,71.7714844,325.5732422"/>
<path fill="#FFD200" d="M142.2333984,351.1933594c0,0-4.4384766,3.3134766-22.4560547,9.0351562
	c-9.4599609,2.9970703-20.7861328,4.8955078-38.8916016,3.9023438c-16.1630859-0.8964844-21.140625-4.6582031-22.4648438-4.9042969
	c-1.2216797-0.2285156-8.4433594,5.7480469-26.3583984,0.8613281c-14.484375-3.9462891-17.2529297-9.84375-19.2451172-10.7929688
	c-0.4775391-0.2285156-3.2636719,11.1533203,18.9257812,17.015625c6.0703125,1.5996094,17.5986328,0.4394531,22.2304688-0.9580078
	c3.7705078-1.1337891,4.4472656-1.9423828,4.7695312-1.9951172c0.5390625-0.0966797,1.2685547,0,1.2685547,0.3603516
	c0,0.3691406,0.0439453,1.0019531,0.0439453,1.0019531s11.3466797,5.0800781,27.8613281,4.8076172
	s34.0371094-3.5859375,46.9248047-9.6679688c6.4189453-3.0234375,6.8525391-3.6298828,7.0751953-4.1308594
	c0.2285156-0.5009766,0.5449219-1.9423828,0.5009766-2.5839844
	C142.3740234,352.5117188,142.2333984,351.1933594,142.2333984,351.1933594"/>

<path fill="#FFD200" d="M314.9560547,290.6542969c-0.0996094-1.7578125-0.6328125-4.4560547-1.4003906-4.3945312
	c-1.2949219,0.0878906-0.4189453,6.0820312-1.9921875,11.6894531c-3.3486328,11.9794922-5.6191406,16.9892578-12.0234375,24.6621094
	c-11.4345703,13.7373047-23.4492188,16.9013672-23.1943359,17.6044922c0.3544922,0.9931641,2.8212891,2.1357422,2.8212891,2.1357422
	s0.1582031,4.359375-4.9277344,11.6894531c-9.6328125,13.9042969-21.5976562,18.1757812-25.21875,18.8349609
	c-1.7314453,0.3076172-6.7324219-0.7382812-11.0742188-4.0957031c-2.7509766-2.1357422-5.0625-6.6708984-5.0449219-9.3955078
	c0.0087891-1.1337891,3.5800781-2.7333984,6.421875-4.6582031c2.6923828-1.8193359,3.8525391-5.0009766,2.6367188-5.9677734
	c-1.4121094-1.125-2.9765625,2.3818359-4.9453125,3.6210938c-1.9628906,1.2480469-5.0537109,2.8300781-5.2119141,2.2675781
	c-0.2548828-0.8876953-0.1757812-1.8017578-1.7402344-3.3486328c-1.2509766-1.2392578-2.390625-2.1708984-2.390625-2.1708984
	s2.8476562-0.6767578,5.5986328-3.7265625c2.1679688-2.390625,2.3994141-7.6201172,0-11.8564453
	c-2.0917969-3.7001953-6.7939453-6.4775391-7.5234375-6.4775391c-0.7207031,0-0.4130859,1.5029297,0.0996094,2.3291016
	c0.5214844,0.8261719,1.2802734,1.0283203,2.5810547,2.0566406c1.2832031,1.0107422,4.4560547,5.1943359,3.4101562,9.3955078
	c-0.6855469,2.7509766-3.1201172,4.7900391-8.0830078,4.5791016c-3.9375-0.1669922-5.9296875-1.1953125-9.4775391-3.4277344
	c-0.4042969-0.2548828-1.0195312,0.1494141-0.4013672,1.6259766c0.4365234,1.0195312,2.2910156,2.7597656,2.2910156,2.7597656
	s-1.7402344-1.1953125-2.2587891-1.5117188c-0.5185547-0.3076172-0.8964844-0.6503906-0.8964844-0.6503906
	s-1.0341797-2.1181641-1.7958984-4.4208984c-0.5859375-1.7578125-0.2958984-5.2294922-0.2958984-5.2294922
	s4.2978516,1.7226562,8.9150391,3.8759766c5.4316406,2.5224609,8.5400391,2.9003906,10.0253906,1.9599609
	c1.4853516-0.9492188-2.1445312-4.9746094-3.6650391-8.4550781c-1.2802734-2.9179688-2.3642578-7.9804688-1.7402344-8.15625
	c0.8173828-0.2373047,2.1269531,2.0917969,11.3994141,6.6445312c3.1728516,1.5644531,10.6787109,4.6318359,11.7304688,4.3417969
	c0.9960938-0.28125,0.2314453-7.5673828-3.2578125-16.7519531c-1.4941406-3.9462891-7.3125-9.3076172-6.8847656-10.0986328
	c0.0205078-0.0351562,3.4746094,0.0263672,3.4746094,0.3164062c0-0.0527344-0.0263672,1.0107422,0.4628906,1.4589844
	c0.3369141,0.3076172,2.0947266,1.0898438,3.2724609,0.6943359c1.8984375-0.6416016,5.6953125-1.125,16.6552734,0.3867188
	c10.2773438,1.4150391,18.8349609,8.1914062,18.9667969,6.9960938c0.4658203-4.2099609,1.8984375-10.9863281,5.1943359-17.5605469
	c5.0009766-9.984375,7.9892578-12.2607422,7.7138672-12.8583984c-0.8085938-1.7841797-7.9072266-6.6708984-15.6679688-8.6660156
	c-9.0527344-2.3291016-14.2119141-1.3886719-14.625-2.1181641c-0.3398438-0.6152344,5.0976562-8.6923828,12.6503906-9.9580078
	c6.0117188-1.0107422,8.8417969,1.8193359,9.8496094,1.4238281c0.3427734-0.1318359-0.3222656-2.2148438-1.9599609-3.4628906
	c-2.671875-2.0302734-6.2578125-1.8017578-6.2578125-1.8017578s-0.5068359-12.375,8.8417969-21.4013672
	c5.4228516-5.2470703,18.84375-8.1826172,29.9003906-1.6347656c14.9501953,8.859375,14.6425781,20.2587891,12.0234375,34.0576172
	c-2.0654297,10.8369141-9.28125,18.1318359-12.7441406,21.0146484
	C314.3759766,295.5058594,315.0615234,292.4121094,314.9560547,290.6542969 M248.8095703,328.2802734
	c-0.3603516,1.3359375,2.4169922,1.6611328,3.3134766,4.1220703c0.9316406,2.5488281,0.5478516,4.0253906,0.5244141,4.3154297
	c-0.09375,0.8964844-1.9482422,4.5,0.0908203,4.5439453c2.1972656,0.0527344,4.1806641-8.0947266,1.4238281-11.7070312
	C251.6982422,326.3291016,249.1347656,327.0410156,248.8095703,328.2802734z"/>
<path fill="#FFFFFF" d="M254.9970703,61.2861328c0,0-11.0566406-9.3339844-17.9560547-5.1240234
	c-7.2158203,4.4033203-2.5283203,16.0136719,4.5439453,23.0097656c6.9257812,6.8554688,16.2890625,10.6699219,21.1992188,8.4375
	c5.7041016-2.5927734,4.4765625-7.6464844,4.4765625-7.6464844s-3.1347656,5.484375-8.5810547,5.34375
	c-8.4404297-0.2197266-15.2197266-9.9580078-15.2197266-9.9580078s1.3125-0.4746094,4.1806641-0.9316406
	c2.3027344-0.3691406,4.2568359-1.0195312,4.2568359-1.0195312s-3.1875-1.1689453-5.7773438-1.8720703
	c-2.6630859-0.7119141-5.4052734-1.5820312-5.4052734-1.5820312s-2.5458984-5.3085938,1.5908203-8.7363281
	C246.9199219,57.3925781,254.9970703,61.2861328,254.9970703,61.2861328"/>
<path fill="#FFFFFF" d="M273.7089844,292.2890625c-0.1757812-0.4482422-3.4716797-1.6962891-7.4443359-2.2763672
	c-3.9638672-0.5800781-6.8144531-0.4042969-7.3037109-0.1318359c-0.4921875,0.2636719-1.2099609,1.5117188-1.7900391,2.9443359
	c-0.5742188,1.4238281-1.1542969,3.8320312-1.1542969,4.0957031c0,0.2724609,1.3798828-0.4833984,6.7734375,1.0283203
	c5.3964844,1.5117188,7.3125,1.5996094,7.6669922,1.5117188c0.3603516-0.0878906,1.2919922-2.0917969,1.9160156-3.7001953
	C272.9970703,294.1611328,273.7089844,292.2890625,273.7089844,292.2890625"/>
<path fill="#FFFFFF" d="M308.3994141,177.9609375c0,0-0.9052734-0.0878906-1.2363281-0.1142578
	c-0.3984375-0.0351562-1.3212891-0.0527344-1.3212891-0.0527344s-3.0849609,1.7929688-4.3769531,2.3554688
	s-3.5332031,1.9072266-3.515625,2.2587891c0.0351562,0.7558594,1.9892578,0.6855469,7.1572266,1.4150391
	c5.0625,0.7207031,8.390625,2.9970703,8.1884766,4.78125c-0.2958984,2.6455078-4.9394531,7.0400391-12.7939453,9
	c-7.8515625,1.9511719-21.0439453,4.6142578-24.9257812,4.6582031c-1.4882812,0.0087891-1.0576172,0.9931641-0.5302734,1.2832031
	c0.5302734,0.2988281,4.1220703,3.0234375,4.2539062,4.3066406c0.1376953,1.3007812-1.1923828,3.4541016-5.2119141,4.6142578
	c-4.6054688,1.3271484-11.5019531,1.4941406-12.8583984,1.4238281c-1.3623047-0.0703125-1.3623047,0.5273438-1.1953125,0.8964844
	c0.1611328,0.3603516,3.0146484,2.5488281,3.2167969,4.3417969c0.1933594,1.7929688-0.6503906,4.640625-13.1572266,5.9501953
	c-19.4326172,2.0390625-25.6552734,2.1884766-25.6904297,2.9355469c-0.0351562,0.7294922,1.9335938,0.4658203,10.6376953,1.0898438
	c7.9248047,0.5625,21.4072266-0.84375,26.6484375-3.2519531c8.0917969-3.7089844,3.6269531-9.2460938,3.609375-9.5800781
	c-0.0263672-0.9228516,8.6894531,0.0439453,11.0742188-0.6855469c3.4628906-1.0634766,6.75-4.6054688,5.8007812-7.5673828
	c-0.8320312-2.5751953-2.2236328-3.2431641-2.2910156-3.5068359c-0.0585938-0.2636719,8.0302734,0.1845703,18.2695312-2.1533203
	c6.09375-1.3974609,14.5810547-5.4755859,17.2353516-10.8105469c2.1240234-4.2714844-1.0283203-7.9189453-5.5371094-9.0791016
	s-6.1435547-0.9667969-6.2666016-1.1953125c-0.1933594-0.3603516,1.3007812-0.7734375,2.0214844-1.2216797
	C306.8642578,179.2705078,308.3994141,177.9609375,308.3994141,177.9609375"/>
<path fill="#FFFFFF" d="M150.6826172,178.9892578c0,0,0.7177734-0.0527344,1.5439453-0.0527344
	c0.8349609,0,2.0214844,0.0527344,2.0214844,0.0527344s-3.4423828,2.9970703-1.7490234,5.5810547
	c1.6962891,2.5751953,7.1777344,2.7509766,9.8349609,2.8564453c2.5693359,0.0966797,3.5185547-0.4394531,3.7617188,0.0263672
	c0.28125,0.5273438-0.8789062,0.9931641-1.4853516,2.2148438c-0.609375,1.2216797-0.2021484,4.0253906,5.1269531,5.0097656
	c9.0292969,1.6699219,16.9394531,1.7402344,18.4541016,1.8193359c1.5205078,0.0791016,2.25,0.4306641,2.25,0.6064453
	c0,0.5361328-0.3164062,0.1582031-5.8154297,0.6328125c-4.6992188,0.4042969-13.1367188,0.4833984-17.109375-0.2988281
	c-5.2324219-1.0371094-6.1464844-2.9882812-6.2460938-4.3242188c-0.0791016-1.0634766,0.3339844-3.0585938,0.2021484-3.2080078
	c-0.1230469-0.1582031-8.7333984,1.8544922-11.4521484-2.1796875
	C146.5107422,182.5224609,150.6826172,178.9892578,150.6826172,178.9892578"/>
<path fill="#FFFFFF" d="M205.9277344,297.2900391c-5.5195312,10.7050781-6.8115234,18.0791016-6.890625,18.4746094
	c-0.0966797,0.4921875-2.5400391-2.9355469-2.7861328-8.1123047c-0.3925781-8.1123047,1.7138672-15.8818359,0-16.4619141
	c-1.6259766-0.5625-8.4023438,12.7001953-10.2568359,16.3652344c-1.8632812,3.6650391-9.7734375,17.8330078-8.5078125,18.9140625
	c1.4501953,1.2304688,7.4326172-10.2128906,9.0878906-12.9550781c1.5908203-2.6103516,6.0644531-10.5996094,6.0644531-10.5996094
	s-0.1494141,8.7451172,1.3183594,11.6279297c1.4619141,2.8828125,3.4716797,6.6005859,5.4697266,6.2138672
	c2.0039062-0.3955078,0.6855469-1.7226562,1.7636719-4.9394531c1.0722656-3.2255859,6.5917969-15.5917969,8.4990234-18.8173828
	s9.0878906-13.78125,8.8945312-15.3896484C218.4257812,280.3007812,210.9550781,287.5429688,205.9277344,297.2900391"/>
<path fill="#FFFFFF" d="M106.2509766,247.5527344c-2.3466797-4.2275391-9.3808594-18.0703125-9.7998047-18.1142578
	c-0.421875-0.0439453-0.7207031,6.7412109-0.7587891,9.6328125c-0.0410156,2.8916016-0.1289062,6.8291016-0.3339844,6.9521484
	c-0.2109375,0.1318359-4.3212891-3.8144531-7.2568359-6.7060547c-2.9326172-2.8828125-6.6181641-6.7851562-7.3740234-8.4990234
	c-0.7558594-1.7226562-1.6757812-4.4824219-2.4316406-4.2714844c-1.0488281,0.2900391-1.2509766,3.515625-1.171875,7.6992188
	c0.0878906,4.1923828,0.3339844,5.4931641-0.0439453,5.7480469c-0.3779297,0.2460938-5.0449219-1.96875-8.8417969-3.7353516
	c-4.7783203-2.2148438-11.0214844-6.2402344-11.3994141-6.1611328c-0.4570312,0.1054688,4.2802734,6.2490234,5.9121094,9.7646484
	c1.9277344,4.1484375,3.6416016,7.9628906,3.0966797,8.1738281c-0.5419922,0.2109375-3.0966797-0.9580078-6.3251953-2.0917969
	c-3.2226562-1.1337891-6.6650391-2.4345703-6.9140625-2.1357422c-0.2519531,0.2900391,3.890625,4.8603516,5.8183594,7.875
	s2.5869141,3.6123047,2.5869141,4.0341797c0,0.4130859-0.5273438,0.9492188-0.9462891,0.9931641
	c-0.4160156,0.0439453-3.0615234,0.2109375-5.1972656,0.2548828s-4.5644531-0.1757812-4.8603516,0.0791016
	c-0.2900391,0.2548828,3.9726562,5.2119141,7.2509766,8.4287109c4.6494141,4.5615234,8.4667969,6.3632812,8.5869141,6.5742188
	c0.1318359,0.2109375-2.2587891,1.4941406-5.1884766,2.8476562c-6.4130859,2.9794922-7.6259766,2.4785156-7.7578125,2.9794922
	c-0.0820312,0.3427734,5.4228516,2.0126953,9.3925781,3.4013672c5.1503906,1.8017578,9.3867188,2.0830078,10.5146484,2.2148438
	c1.1337891,0.1318359-1.0517578,1.1689453-1.7578125,1.5908203c-0.7119141,0.421875-2.1005859,1.0019531-2.1005859,1.3007812
	c0,0.5800781,9.4570312,5.2558594,17.3730469,5.9326172c8.2998047,0.7207031,15.6826172-0.3779297,19.7167969-2.4960938
	c0.7998047-0.421875,0.7558594-1.0458984-0.0410156-1.3447266c-1.0048828-0.3691406-2.3496094,1.5029297-14.25,1.2216797
	c-10.5996094-0.2548828-18.1845703-3.1025391-18.5214844-3.4804688c-0.2871094-0.3251953,2.8945312-1.4238281,4.2744141-2.1357422
	c1.3857422-0.7207031,3.1025391-1.265625,2.9355469-2.0126953c-0.1933594-0.84375-3.0908203-0.6767578-6.0791016-1.0107422
	c-3.8144531-0.4130859-13.6171875-2.8916016-13.828125-3.1376953c-0.2109375-0.2548828,2.9296875-1.7666016,4.4824219-2.6455078
	c1.5556641-0.8789062,3.0585938-1.8457031,3.5214844-1.9248047c0.4599609-0.0878906,1.2509766-0.4570312,1.3007812-0.84375
	c0.1259766-1.0019531-0.8408203-1.1689453-1.3007812-1.4589844c-0.4628906-0.2900391-2.0683594-1.7753906-7.1660156-5.7832031
	c-3.1464844-2.4785156-6.1201172-5.4931641-6.2871094-5.7832031c-0.1669922-0.2988281,2.6455078-0.3779297,4.8222656-0.4658203
	c2.1738281-0.0791016,3.3076172-0.2109375,3.8964844-0.5009766c0.5859375-0.2900391,1.2128906-0.5449219,1.171875-1.2568359
	c-0.0380859-0.7119141-1.0898438-2.2236328-2.9296875-4.6494141c-1.3535156-1.7841797-3.9375-4.4912109-3.8583984-4.7373047
	c0.0878906-0.2460938,1.96875,0.5009766,4.4853516,1.2568359c2.5107422,0.7558594,5.5166016,2.1708984,6.2285156,1.6259766
	s0.4042969-2.9267578-1.3710938-6.4423828c-2.4697266-4.9042969-5.1972656-8.3320312-4.9042969-8.5429688
	c0.2900391-0.2109375,4.6582031,2.5927734,7.5498047,4.1835938c2.8857422,1.5908203,7.7871094,4.2275391,8.3320312,4.1396484
	s1.5205078-2.1269531,1.3886719-4.0166016c-0.1259766-1.8808594-0.4599609-5.3173828-0.2460938-5.4492188
	c0.2021484-0.1230469,5.2734375,5.8710938,7.5761719,7.9189453c2.3056641,2.0566406,4.6962891,3.9375,5.8271484,4.8603516
	c1.1337891,0.9228516,2.9355469,2.6894531,3.3486328,3.0673828c0.4248047,0.3779297,1.3447266,0.2900391,1.5556641-0.4658203
	s0.0410156-4.4824219,0-5.7392578c-0.0439453-1.2568359,0.0791016-4.78125,0.2900391-4.9482422
	s2.390625,4.1923828,4.5263672,7.2949219c1.4765625,2.1357422,4.6933594,7.2949219,5.6162109,8.8417969
	c0.9228516,1.5556641,2.4082031,3.5683594,2.8974609,3.2695312
	C112.6230469,257.8886719,108.5068359,251.6220703,106.2509766,247.5527344"/>
<path fill="#FFFFFF" d="M90.9755859,317.4785156c-0.6855469-0.8876953-1.6787109-1.9072266-1.9072266-2.0566406
	c-0.2285156-0.140625-1.9892578,0.7734375-2.7949219,1.0283203c-0.7910156,0.2548828-3.1816406,1.1162109-3.3544922,1.3095703
	c-0.1640625,0.1933594,1.3125,1.6787109,1.8251953,2.3642578c0.5097656,0.6855469,2.1621094,2.53125,2.4697266,2.5576172
	c0.1318359,0.0175781,2.109375-0.8525391,3.1904297-1.1953125c1.0810547-0.3339844,2.0771484-0.7998047,2.390625-1.1074219
	C92.9443359,320.2294922,91.6611328,318.3574219,90.9755859,317.4785156"/>
<path fill="#FFFFFF" d="M110.1591797,287.7802734c-0.6826172-0.3427734-2.5957031-4.1396484-2.0566406-7.8310547
	c0.5332031-3.6914062,2.6542969-10.7138672,3.28125-12.7792969c0.6386719-2.109375,1.3476562-4.7285156,1.7753906-4.78125
	c0.4306641-0.0527344,1.8457031,1.9863281,1.8457031,2.671875c0,0.9052734-2.3378906,7.3828125-2.8740234,9.9492188
	C111.6035156,277.5761719,110.1591797,287.7802734,110.1591797,287.7802734"/>
<path fill="#0067B1" d="M290.3056641,368.2441406c1.2275391,0,2.3701172,0.3076172,3.4277344,0.9316406
	c1.0664062,0.6152344,1.9042969,1.4501953,2.5195312,2.5136719s0.9228516,2.2060547,0.9228516,3.4365234
	s-0.3017578,2.3818359-0.9140625,3.4453125c-0.6181641,1.0546875-1.4560547,1.8896484-2.5166016,2.5048828
	s-2.2119141,0.9228516-3.4394531,0.9228516c-1.2421875,0-2.390625-0.2988281-3.4482422-0.9140625
	c-1.0634766-0.6152344-1.9013672-1.4501953-2.5166016-2.5136719c-0.6123047-1.0634766-0.9199219-2.2148438-0.9199219-3.4453125
	c0-1.2392578,0.3076172-2.3818359,0.9228516-3.4453125s1.4589844-1.8984375,2.5224609-2.5136719
	C287.9267578,368.5517578,289.0722656,368.2441406,290.3056641,368.2441406 M290.3056641,369.3691406
	c-1.5673828,0-2.9121094,0.5625-4.0195312,1.6875c-1.1162109,1.125-1.6699219,2.4785156-1.6699219,4.0693359
	s0.5537109,2.9443359,1.6611328,4.0693359c1.1103516,1.1162109,2.4521484,1.6787109,4.0283203,1.6787109
	c1.5644531,0,2.90625-0.5625,4.0136719-1.6875s1.6640625-2.4785156,1.6640625-4.0605469
	c0-1.5908203-0.5566406-2.9443359-1.6699219-4.0693359C293.203125,369.9316406,291.8642578,369.3691406,290.3056641,369.3691406z
	 M288.7558594,378.8525391h-1.1923828v-7.4267578h2.5429688c0.8994141,0,1.5322266,0.0703125,1.9013672,0.2197266
	c0.3720703,0.140625,0.6679688,0.3779297,0.8876953,0.7207031c0.2285156,0.3339844,0.3339844,0.6943359,0.3339844,1.0722656
	c0,0.5712891-0.1933594,1.0458984-0.5800781,1.4326172c-0.3955078,0.3955078-0.8964844,0.6152344-1.5175781,0.6679688
	c0.2783203,0.1142578,0.5332031,0.2988281,0.7792969,0.5712891c0.2373047,0.2636719,0.5537109,0.6943359,0.9228516,1.3007812
	l0.8964844,1.4414062h-1.4589844l-0.6474609-1.1601562c-0.46875-0.8349609-0.8378906-1.3710938-1.1015625-1.6171875
	c-0.2636719-0.2548828-0.6240234-0.3691406-1.0664062-0.3691406h-0.7001953V378.8525391z M288.7558594,372.4189453v2.2587891
	h1.4443359c0.6210938,0,1.0664062-0.0878906,1.3505859-0.2724609c0.28125-0.1845703,0.4248047-0.4746094,0.4248047-0.8701172
	c0-0.4042969-0.140625-0.703125-0.4160156-0.8701172c-0.2724609-0.1582031-0.7558594-0.2460938-1.4472656-0.2460938H288.7558594z"/>
<path fill="#FFFFFF" d="M217.0371094,209.0917969c0,0-2.0830078,0.0615234-2.1064453,0.0615234
	c-0.0292969,0-0.1962891-0.0087891-0.1962891-0.0087891c-4.1835938-0.1757812-6.8935547-0.2109375-8.4287109-0.2109375
	c-1.8632812,0-2.8066406,0.6503906-2.8066406,1.9160156c0,0.5712891,0.2402344,1.9072266,2.5078125,1.9072266
	c0.8876953,0,1.9863281,0.0878906,2.3964844,0.1845703c1.7783203,0.3867188,2.15625,0.9052734,2.2851562,3.1464844
	c0.1464844,2.3642578,0.1464844,4.4121094,0.1464844,15.8115234v9.3603516c0,7.7783203-0.2929688,14.0097656-3.9755859,17.7011719
	c-3.3310547,3.3222656-7.734375,3.6826172-9.4716797,3.6826172c-2.5605469,0-5.5839844-0.3339844-8.5722656-2.7861328
	c-3.2431641-2.6455078-5.3964844-6.6269531-5.3964844-17.4726562v-10.4853516c0-11.3994141,0-13.4472656,0.1494141-15.8115234
	c0.1494141-2.5488281,0.6708984-2.9267578,1.7666016-3.1289062c0.8525391-0.140625,1.2304688-0.2021484,1.9423828-0.2021484
	c2.2675781,0,2.4433594-1.4589844,2.4433594-1.9072266c0-1.9160156-2.1767578-1.9160156-2.8916016-1.9160156l-5.5107422,0.1318359
	l-3.7001953,0.0878906l-14.3847656,0.0087891l-4.2744141-0.1230469l-3.4599609-0.1054688
	c-2.1210938,0-2.4375,1.2041016-2.4375,1.9160156c0,1.5292969,1.40625,1.8369141,1.9423828,1.9599609
	c0.0087891,0,0.0351562,0.0087891,0.0615234,0.0087891c0.0087891,0.0439453,0.0263672,0.1142578,0.0263672,0.28125
	c0,0.7558594-1.6728516,2.7246094-3.1494141,4.4648438l-0.3164062,0.3691406
	c-1.2802734,1.5029297-5.7363281,6.1347656-9.6650391,10.2128906c-1.6142578,1.6699219-3.0849609,3.1992188-4.2275391,4.3945312
	c0-0.1669922,0-0.5888672,0-0.5888672c0-11.4257812,0-13.4824219,0.1494141-15.8466797
	c0.1494141-2.5576172,0.6767578-2.9355469,1.7666016-3.1376953c0.8320312-0.140625,1.2216797-0.2109375,1.8808594-0.2109375
	c2.1738281,0,2.2851562-1.5908203,2.2851562-1.9072266c0-1.265625-0.9492188-1.9160156-2.8125-1.9160156l-5.3144531,0.1318359
	l-3.7734375,0.0966797l-3.3134766-0.0791016c-2.1445312-0.0703125-4.8017578-0.1494141-7.2041016-0.1494141
	c-2.8857422,0-2.8857422,1.4414062-2.8857422,1.9160156c0,0.5712891,0.2460938,1.9072266,2.5107422,1.9072266
	c1.0664062,0,2.2001953,0.0878906,2.6308594,0.1933594c1.7666016,0.3779297,2.1621094,0.9316406,2.296875,3.1464844
	c0.1523438,2.3730469,0.1523438,4.4296875,0.1523438,15.8554688v13.21875c0,6.8554688,0,12.7705078-0.3691406,15.8466797
	c-0.2958984,2.1445312-0.6123047,2.953125-1.2011719,3.0673828c-0.8525391,0.1933594-1.6259766,0.28125-2.4521484,0.28125
	c-2.2675781,0-2.4433594,1.3974609-2.4433594,1.828125c0,0.5976562,0.2666016,1.9863281,2.7392578,1.9863281
	c1.7255859,0,3.984375-0.0703125,5.9707031-0.1318359l3.4980469-0.0878906l3.3662109,0.0791016
	c2.1884766,0.0615234,4.9042969,0.140625,7.4443359,0.140625c2.5371094,0,2.6630859-1.6523438,2.6630859-1.9863281
	c0-0.8789062-0.6943359-1.828125-2.2148438-1.828125c-0.9169922,0-2.5341797-0.1494141-3.5009766-0.2988281
	c-0.4189453-0.0615234-1.4560547-0.2285156-1.640625-2.9091797c-0.2285156-3.1904297-0.2285156-9.1230469-0.2285156-15.9873047
	c0,0,0-1.9423828,0-3.8320312c1.7753906,1.9599609,28.6083984,31.6054688,28.6083984,31.6054688l0.0556641,0.0439453
	c3.328125,2.953125,5.6015625,4.7724609,10.0078125,5.1855469c1.6259766,0.1494141,3.0058594,0.1494141,5.2910156,0.1494141
	h6.5390625c0.8320312,0,3.0322266,0,3.0322266-1.9775391c0-0.9228516-0.6767578-1.8457031-2.2119141-1.8457031
	c-0.5302734,0-2.0068359-0.3603516-4.5292969-1.3623047c-3.6035156-1.40625-7.03125-4.4121094-9.9052734-7.171875
	c-0.0615234-0.0615234-8.7011719-9.4394531-8.7011719-9.4394531s-16.8662109-18.1494141-20.7392578-22.3066406
	c3.5039062-3.6210938,13.1191406-13.2802734,15.3515625-15.328125c3.1904297-2.9179688,6.7148438-5.90625,8.6923828-5.90625
	c0.9492188,0,1.8193359,0.2285156,1.9863281,3.1025391c0.1494141,2.3642578,0.1494141,4.4208984,0.1494141,15.8115234v10.9335938
	c0,9.8173828,2.25,16.4267578,7.0751953,20.7685547c6.0644531,5.484375,14.0449219,5.484375,17.4550781,5.484375
	c4.5439453,0,10.5205078-0.6416016,16.3916016-5.6865234c6.6328125-5.6865234,7.546875-14.6513672,7.546875-23.4931641v-8.0068359
	c0-11.3994141,0-13.4472656,0.1435547-15.8115234c0.1494141-2.5488281,0.6767578-2.9267578,1.7666016-3.1289062
	c0.8525391-0.140625,1.2304688-0.2021484,1.9423828-0.2021484c2.25,0,2.5839844-1.1953125,2.5839844-1.9072266
	c0-1.265625-0.9404297-1.9160156-2.8037109-1.9160156C221.5546875,208.9335938,218.9443359,209.0302734,217.0371094,209.0917969"/>
</svg>
